<?xml version="1.0" encoding="UTF-8" standalone="no"?>
<!-- Generator: Adobe Illustrator 19.0.0, SVG Export Plug-In . SVG Version: 6.00 Build 0)  -->

<svg
   xmlns:dc="http://purl.org/dc/elements/1.1/"
   xmlns:cc="http://creativecommons.org/ns#"
   xmlns:rdf="http://www.w3.org/1999/02/22-rdf-syntax-ns#"
   xmlns:svg="http://www.w3.org/2000/svg"
   xmlns="http://www.w3.org/2000/svg"
   xmlns:sodipodi="http://sodipodi.sourceforge.net/DTD/sodipodi-0.dtd"
   xmlns:inkscape="http://www.inkscape.org/namespaces/inkscape"
   version="1.1"
   id="Layer_1"
   x="0px"
   y="0px"
   viewBox="0 0 20.000002 20"
   xml:space="preserve"
   sodipodi:docname="duck.svg"
   width="20.000002"
   height="20"
   inkscape:version="0.92.5 (2060ec1f9f, 2020-04-08)"><metadata
   id="metadata51"><rdf:RDF><cc:Work
       rdf:about=""><dc:format>image/svg+xml</dc:format><dc:type
         rdf:resource="http://purl.org/dc/dcmitype/StillImage" /></cc:Work></rdf:RDF></metadata><defs
   id="defs49" /><sodipodi:namedview
   pagecolor="#ffffff"
   bordercolor="#666666"
   borderopacity="1"
   objecttolerance="10"
   gridtolerance="10"
   guidetolerance="10"
   inkscape:pageopacity="0"
   inkscape:pageshadow="2"
   inkscape:window-width="1920"
   inkscape:window-height="1016"
   id="namedview47"
   showgrid="false"
   inkscape:zoom="0.62158752"
   inkscape:cx="170.33907"
   inkscape:cy="189.8365"
   inkscape:window-x="0"
   inkscape:window-y="27"
   inkscape:window-maximized="1"
   inkscape:current-layer="Layer_1" />
<g
   id="g14"
   transform="matrix(0.05983671,0,0,0.05267691,-1.3591909,0)">
	<path
   style="fill:#b36f0f"
   d="m 187.289,262.762 c -8.178,0 -14.808,6.63 -14.808,14.81 v 77.403 h -27.785 c -6.82,0 -12.349,5.529 -12.349,12.349 0,6.82 5.529,12.349 12.349,12.349 h 45.053 c 6.82,0 12.349,-5.529 12.349,-12.349 v -89.752 c 0,-8.179 -6.63,-14.81 -14.809,-14.81 z"
   id="path2"
   inkscape:connector-curvature="0" />
	<path
   style="fill:#d98712"
   d="m 249.866,262.762 c -8.178,0 -14.808,6.63 -14.808,14.81 v 77.403 h -27.785 c -6.82,0 -12.349,5.529 -12.349,12.349 0,6.82 5.529,12.349 12.349,12.349 h 45.053 c 6.82,0 12.349,-5.529 12.349,-12.349 v -89.752 c 0,-8.179 -6.63,-14.81 -14.809,-14.81 z"
   id="path4"
   inkscape:connector-curvature="0" />
	<path
   style="fill:#ffb648"
   d="m 342.656,131.671 c -7.899,0 -14.303,6.404 -14.303,14.303 v 4.517 c -15.239,-13.679 -35.378,-22.008 -57.467,-22.008 h -59.717 v -39.35 c 0,-37.521 -27.244,-68.662 -63.024,-74.769 l 1.265,-1.265 c 2.577,-2.578 2.577,-6.755 0,-9.333 -2.577,-2.576 -6.756,-2.576 -9.333,0 l -4.854,4.853 V 6.599 C 135.223,2.955 132.269,0 128.624,0 124.98,0 122.025,2.955 122.025,6.599 V 14.44 C 86.452,20.72 59.421,51.76 59.421,89.134 v 100.611 c 0,61.239 49.646,110.885 110.885,110.885 h 100.579 c 47.537,0 86.073,-38.537 86.073,-86.073 v -68.582 c 10e-4,-7.9 -6.403,-14.304 -14.302,-14.304 z"
   id="path6"
   inkscape:connector-curvature="0" />
	<path
   style="fill:#ff9e16"
   d="m 292.771,172.76 c 1.799,0 3.257,1.458 3.257,3.256 l 0.019,0.001 c -1.713,45.831 -39.409,82.462 -85.659,82.462 -46.25,0 -83.946,-36.631 -85.658,-82.462 l 0.019,-0.001 c 0,-1.798 1.458,-3.256 3.256,-3.256 z"
   id="path8"
   inkscape:connector-curvature="0" />
	<path
   style="fill:#d98712"
   d="M 105.839,92.885 H 45.5 c -12.584,0 -22.785,10.201 -22.785,22.786 0,12.583 10.201,22.784 22.785,22.784 h 60.339 c 12.583,0 22.786,-10.201 22.786,-22.784 -0.001,-12.585 -10.203,-22.786 -22.786,-22.786 z"
   id="path10"
   inkscape:connector-curvature="0" />
	<circle
   style="fill:#333e48"
   cx="131.681"
   cy="73.225998"
   r="7.9699998"
   id="circle12" />
</g>
<g
   id="g16"
   transform="translate(-22.715,-359.673)">
</g>
<g
   id="g18"
   transform="translate(-22.715,-359.673)">
</g>
<g
   id="g20"
   transform="translate(-22.715,-359.673)">
</g>
<g
   id="g22"
   transform="translate(-22.715,-359.673)">
</g>
<g
   id="g24"
   transform="translate(-22.715,-359.673)">
</g>
<g
   id="g26"
   transform="translate(-22.715,-359.673)">
</g>
<g
   id="g28"
   transform="translate(-22.715,-359.673)">
</g>
<g
   id="g30"
   transform="translate(-22.715,-359.673)">
</g>
<g
   id="g32"
   transform="translate(-22.715,-359.673)">
</g>
<g
   id="g34"
   transform="translate(-22.715,-359.673)">
</g>
<g
   id="g36"
   transform="translate(-22.715,-359.673)">
</g>
<g
   id="g38"
   transform="translate(-22.715,-359.673)">
</g>
<g
   id="g40"
   transform="translate(-22.715,-359.673)">
</g>
<g
   id="g42"
   transform="translate(-22.715,-359.673)">
</g>
<g
   id="g44"
   transform="translate(-22.715,-359.673)">
</g>
</svg>